<?xml version="1.0" standalone="no"?>
<!DOCTYPE svg PUBLIC "-//W3C//DTD SVG 20010904//EN"
 "http://www.w3.org/TR/2001/REC-SVG-20010904/DTD/svg10.dtd">
<svg version="1.0" xmlns="http://www.w3.org/2000/svg"
 width="711.000000pt" height="199.000000pt" viewBox="0 0 711.000000 199.000000"
 preserveAspectRatio="xMidYMid meet">
<metadata>
Created by potrace 1.16, written by Peter Selinger 2001-2019
</metadata>
<g transform="translate(0.000000,199.000000) scale(0.100000,-0.100000)"
fill="#000000" stroke="none">
<path d="M4830 1830 l0 -160 -79 0 c-61 0 -82 -4 -92 -17 -10 -11 -15 -58 -17
-165 l-4 -148 -229 0 -229 0 0 -670 0 -670 1118 2 1117 3 3 668 2 667 -235 0
-235 0 0 144 c0 181 -2 184 -110 188 l-75 3 -3 158 -3 157 -464 0 -465 0 0
-160z m303 -722 c4 -56 5 -104 3 -106 -3 -2 -39 2 -81 9 -94 15 -241 7 -290
-16 -43 -21 -135 -120 -135 -145 0 -29 9 -29 90 -9 81 21 213 26 268 10 84
-25 159 -89 204 -174 20 -36 23 -57 23 -142 0 -96 -1 -103 -36 -165 -61 -111
-162 -171 -325 -192 -102 -14 -223 1 -300 36 -30 14 -76 47 -103 74 -90 90
-121 183 -121 362 0 185 42 309 138 412 57 61 110 93 205 124 65 21 91 23 263
24 l191 0 6 -102z m1135 -2 c-3 -99 -5 -108 -43 -182 -23 -44 -133 -229 -245
-412 l-204 -332 -122 0 c-134 0 -184 7 -184 24 0 7 53 95 118 197 103 160 280
447 337 546 11 18 17 35 14 38 -3 3 -113 10 -243 16 -130 5 -248 14 -261 19
-17 6 -26 20 -31 45 -8 42 1 104 16 119 14 14 199 22 568 24 l284 2 -4 -104z"/>
<path d="M4637 655 c-36 -35 -14 -195 34 -250 65 -74 200 -62 235 20 18 44 18
138 0 173 -29 57 -50 66 -155 70 -81 4 -100 1 -114 -13z"/>
<path d="M3425 1210 c-133 -19 -269 -101 -314 -189 -26 -50 -35 -137 -21 -190
14 -54 87 -134 150 -166 25 -12 115 -41 200 -64 179 -48 240 -75 258 -114 32
-66 -18 -98 -163 -105 -124 -5 -211 12 -341 68 -53 23 -99 39 -102 35 -8 -8
-20 -101 -21 -162 -1 -44 3 -55 22 -67 38 -25 139 -46 274 -57 262 -22 424 15
536 120 71 66 77 83 77 210 0 110 0 111 -32 146 -42 48 -103 78 -250 121 -267
78 -291 86 -314 109 -20 20 -22 28 -13 53 16 48 66 66 188 70 127 5 217 -14
314 -66 83 -45 87 -41 87 75 0 107 -9 129 -57 142 -115 30 -368 47 -478 31z"/>
<path d="M1160 1201 l-55 -6 -28 -58 c-33 -68 -354 -865 -363 -902 l-6 -26
137 3 137 3 36 90 37 90 207 3 206 2 27 -80 c15 -44 33 -87 42 -95 22 -23 251
-22 260 1 7 18 -54 180 -244 659 l-128 320 -105 1 c-58 1 -130 -2 -160 -5z
m126 -329 c26 -61 84 -235 84 -253 0 -24 -20 -29 -115 -29 -94 0 -115 5 -115
29 0 40 108 303 121 295 5 -3 16 -22 25 -42z"/>
<path d="M2040 705 l0 -508 92 7 c50 3 230 6 400 6 l308 0 0 90 0 90 -250 0
-250 0 0 125 0 125 223 2 222 3 3 93 3 92 -226 0 -225 0 0 95 0 95 250 0 250
0 0 90 0 90 -302 0 c-167 0 -347 3 -400 7 l-98 6 0 -508z"/>
</g>
</svg>
