<?xml version="1.0" standalone="no"?>
<!DOCTYPE svg PUBLIC "-//W3C//DTD SVG 20010904//EN"
 "http://www.w3.org/TR/2001/REC-SVG-20010904/DTD/svg10.dtd">
<svg version="1.0" xmlns="http://www.w3.org/2000/svg"
 width="1264.000000pt" height="353.000000pt" viewBox="0 0 1264.000000 353.000000"
 preserveAspectRatio="xMidYMid meet">
<metadata>
Created by potrace 1.16, written by Peter Selinger 2001-2019
</metadata>
<g transform="translate(0.000000,353.000000) scale(0.100000,-0.100000)"
fill="#000000" stroke="none">
<path d="M0 1765 l0 -1765 6320 0 6320 0 0 1765 0 1765 -6320 0 -6320 0 0
-1765z m8588 1473 l2 -278 -112 0 c-129 0 -183 -12 -199 -43 -7 -12 -16 -105
-20 -222 -5 -110 -11 -228 -15 -262 l-6 -63 -404 0 -404 0 -2 -1177 -3 -1178
-3705 0 -3705 0 -3 955 c-2 525 0 1312 4 1747 l6 793 962 3 c528 1 2455 2
4281 2 l3320 0 3 -277z m4037 -1473 l0 -1750 -609 0 -610 0 2 820 c1 451 5
980 9 1176 l6 356 -418 6 c-230 4 -419 8 -421 10 -1 1 -6 118 -12 260 -7 191
-13 261 -23 274 -25 30 -83 45 -186 51 -92 4 -102 7 -108 26 -3 12 -9 135 -12
274 l-6 252 1194 -2 1194 -3 0 -1750z m-3528 352 c4 -5 10 -80 12 -166 l3
-158 -48 3 c-139 10 -234 11 -384 4 -196 -9 -212 -15 -321 -117 -91 -87 -129
-141 -129 -187 0 -24 5 -36 14 -36 8 0 76 9 152 21 189 28 429 28 501 1 116
-44 260 -178 319 -297 l36 -72 -4 -179 -3 -179 -35 -65 c-39 -72 -132 -177
-197 -221 -65 -45 -152 -86 -234 -110 -92 -26 -372 -38 -488 -20 -139 22 -265
87 -370 192 -79 78 -132 166 -168 274 -23 73 -26 99 -31 286 -7 307 13 414
113 608 116 225 370 398 620 421 106 10 631 7 642 -3z m2030 -139 c-6 -174
-18 -224 -79 -338 -44 -82 -671 -1127 -743 -1240 l-45 -70 -102 1 c-177 1
-388 15 -400 27 -14 14 18 69 330 572 299 482 449 731 468 776 13 30 12 34 -4
43 -9 5 -123 16 -252 26 -560 39 -614 44 -640 64 -38 28 -53 84 -41 155 16 89
29 103 103 111 105 11 549 22 992 23 l419 2 -6 -152z"/>
<path d="M3630 1250 l0 -903 58 7 c31 3 323 8 647 11 325 3 618 8 653 11 l62
6 0 154 0 154 -445 0 -445 0 0 220 0 220 53 0 c139 1 730 20 734 24 3 2 7 77
10 165 l6 161 -402 0 -401 0 0 165 0 165 445 0 445 0 0 158 0 159 -633 6
c-348 4 -667 10 -710 13 l-77 7 0 -903z"/>
<path d="M6015 2130 c-228 -59 -422 -197 -493 -347 -24 -51 -27 -72 -30 -181
-3 -108 -1 -127 17 -166 28 -56 121 -159 194 -212 71 -52 100 -63 431 -164
289 -87 362 -117 413 -168 31 -31 34 -38 31 -85 l-3 -52 -64 -32 -64 -33 -211
0 c-256 0 -284 6 -532 99 -103 39 -193 71 -200 71 -13 0 -19 -27 -34 -155 -16
-141 -13 -188 11 -219 61 -78 277 -124 624 -133 355 -9 513 17 681 113 165 94
253 185 275 284 7 30 13 120 13 200 1 133 -1 149 -22 192 -30 61 -87 109 -183
158 -73 37 -151 64 -589 204 -215 68 -269 94 -284 137 -18 52 22 116 92 146
84 35 410 41 562 9 36 -8 123 -39 194 -70 73 -32 141 -56 155 -54 36 4 44 49
38 194 -7 152 -20 188 -79 213 -96 42 -376 71 -678 70 -157 0 -209 -4 -265
-19z"/>
<path d="M2057 2129 c-80 -9 -96 -20 -133 -97 -106 -222 -654 -1592 -654
-1636 0 -21 116 -29 299 -18 186 10 173 0 252 190 l54 132 261 0 c143 0 308 3
366 6 l105 7 33 -94 c45 -126 85 -205 114 -224 19 -12 58 -16 202 -16 190 -1
234 7 234 40 0 49 -132 401 -426 1138 -252 630 -221 569 -286 576 -70 9 -335
6 -421 -4z m231 -626 c49 -129 122 -363 122 -393 0 -16 -5 -32 -10 -35 -6 -3
-83 -6 -172 -6 -190 0 -196 3 -178 72 17 62 138 368 162 407 11 17 26 32 33
32 8 0 27 -34 43 -77z"/>
<path d="M8248 1171 c-49 -39 -58 -159 -21 -305 41 -168 139 -244 298 -234 94
6 148 35 190 102 29 48 30 54 30 165 0 130 -11 175 -57 227 -41 46 -78 55
-258 61 -147 5 -156 4 -182 -16z"/>
</g>
</svg>
